<svg width="200" height="200" viewBox="0 0 200 200" fill="none" xmlns="http://www.w3.org/2000/svg">
<path d="M177.778 0H22.2222C10 0 0 10 0 22.2222V177.778C0 190 10 200 22.2222 200H177.778C190 200 200 190 200 177.778V22.2222C200 10 190 0 177.778 0ZM111.111 45.5556L123.333 33.3333L138.889 48.8889L154.444 33.3333L166.667 45.5556L151.111 61.1111L166.667 76.6667L154.444 88.8889L138.889 73.3333L123.333 88.8889L111.111 76.6667L126.667 61.1111L111.111 45.5556ZM35.5556 52.2222H91.1111V68.8889H35.5556V52.2222ZM94.4444 144.444H72.2222V166.667H55.5556V144.444H33.3333V127.778H55.5556V105.556H72.2222V127.778H94.4444V144.444ZM166.667 157.778H111.111V141.111H166.667V157.778ZM166.667 131.111H111.111V114.444H166.667V131.111Z" fill="#00E0FF"/>
</svg>
