<svg width="200" height="200" viewBox="0 0 200 200" fill="none" xmlns="http://www.w3.org/2000/svg">
<path d="M50 91.6667H150C152.21 91.6667 154.33 92.5446 155.893 94.1074C157.455 95.6702 158.333 97.7899 158.333 100C158.333 102.21 157.455 104.33 155.893 105.893C154.33 107.455 152.21 108.333 150 108.333H50C47.7899 108.333 45.6703 107.455 44.1075 105.893C42.5447 104.33 41.6667 102.21 41.6667 100C41.6667 97.7899 42.5447 95.6702 44.1075 94.1074C45.6703 92.5446 47.7899 91.6667 50 91.6667ZM100.017 33.3333C95.5964 33.3289 91.3554 35.0806 88.2267 38.2031C85.098 41.3256 83.3378 45.5631 83.3334 49.9833C83.3289 54.4036 85.0806 58.6446 88.2031 61.7733C91.3256 64.9021 95.5631 66.6622 99.9834 66.6667C104.404 66.6711 108.645 64.9194 111.773 61.7969C114.902 58.6744 116.662 54.4369 116.667 50.0167C116.671 45.5964 114.919 41.3554 111.797 38.2267C108.674 35.0979 104.437 33.3378 100.017 33.3333ZM100.017 133.333C95.5964 133.329 91.3554 135.081 88.2267 138.203C85.098 141.326 83.3378 145.563 83.3334 149.983C83.3289 154.404 85.0806 158.645 88.2031 161.773C91.3256 164.902 95.5631 166.662 99.9834 166.667C104.404 166.671 108.645 164.919 111.773 161.797C114.902 158.674 116.662 154.437 116.667 150.017C116.671 145.596 114.919 141.355 111.797 138.227C108.674 135.098 104.437 133.338 100.017 133.333Z" fill="white"/>
</svg>
