<svg width="200" height="229" viewBox="0 0 200 229" fill="none" xmlns="http://www.w3.org/2000/svg">
<path d="M78.5689 0C76.6744 0 74.8575 0.752588 73.5178 2.0922C72.1782 3.43182 71.4256 5.24873 71.4256 7.14323C71.4256 9.03773 72.1782 10.8546 73.5178 12.1943C74.8575 13.5339 76.6744 14.2865 78.5689 14.2865H85.7121V29.573C60.6887 33.1897 37.9635 46.1492 22.1088 65.8439C6.25412 85.5386 -1.55348 110.507 0.256898 135.726C2.06727 160.944 13.3613 184.541 31.8666 201.769C50.3718 218.997 74.7151 228.578 99.9986 228.583C119.17 228.583 137.937 223.071 154.064 212.706C170.191 202.341 183 187.559 190.963 170.12C198.927 152.682 201.71 133.321 198.982 114.345C196.254 95.3694 188.128 77.5776 175.574 63.089C175.637 63.0329 175.699 62.9757 175.76 62.9176L180.817 57.8602L185.86 62.9176C186.519 63.5998 187.307 64.144 188.179 64.5184C189.05 64.8927 189.988 65.0898 190.936 65.098C191.885 65.1063 192.825 64.9255 193.703 64.5664C194.581 64.2072 195.379 63.6768 196.049 63.0061C196.72 62.3354 197.25 61.5379 197.61 60.66C197.969 59.7821 198.149 58.8415 198.141 57.893C198.133 56.9445 197.936 56.0072 197.562 55.1357C197.187 54.2642 196.643 53.476 195.961 52.817L175.76 32.6017C175.101 31.9194 174.312 31.3753 173.441 31.0009C172.569 30.6265 171.632 30.4295 170.684 30.4212C169.735 30.413 168.795 30.5937 167.917 30.9529C167.039 31.3121 166.241 31.8425 165.571 32.5132C164.9 33.1839 164.369 33.9814 164.01 34.8593C163.651 35.7372 163.47 36.6778 163.479 37.6263C163.487 38.5747 163.684 39.5121 164.058 40.3836C164.433 41.2551 164.977 42.0433 165.659 42.7022L170.717 47.7596L165.659 52.817C165.601 52.8735 165.544 52.9307 165.488 52.9885C151.025 40.4274 133.248 32.3025 114.285 29.5873V14.2865H121.428C123.323 14.2865 125.14 13.5339 126.479 12.1943C127.819 10.8546 128.571 9.03773 128.571 7.14323C128.571 5.24873 127.819 3.43182 126.479 2.0922C125.14 0.752588 123.323 0 121.428 0L78.5689 0ZM107.142 80.0042V128.578C107.142 130.473 106.389 132.29 105.05 133.629C103.71 134.969 101.893 135.721 99.9986 135.721H49.996C48.1014 135.721 46.2845 134.969 44.9449 133.629C43.6053 132.29 42.8527 130.473 42.8527 128.578C42.8527 126.684 43.6053 124.867 44.9449 123.527C46.2845 122.187 48.1014 121.435 49.996 121.435H92.8553V80.0042C92.8553 78.1097 93.6079 76.2928 94.9475 74.9531C96.2872 73.6135 98.1041 72.8609 99.9986 72.8609C101.893 72.8609 103.71 73.6135 105.05 74.9531C106.389 76.2928 107.142 78.1097 107.142 80.0042Z" fill="#00E0FF"/>
</svg>
