<svg width="200" height="200" viewBox="0 0 200 200" fill="none" xmlns="http://www.w3.org/2000/svg">
<path d="M84.4445 146.667L162.778 68.3333L147.222 52.7778L84.4445 115.556L52.7778 83.8889L37.2222 99.4444L84.4445 146.667ZM22.2222 200C16.1111 200 10.8778 197.822 6.52224 193.467C2.16668 189.111 -0.00738854 183.881 1.88644e-05 177.778V22.2222C1.88644e-05 16.1111 2.1778 10.8778 6.53335 6.52224C10.8889 2.16668 16.1185 -0.00738854 22.2222 1.88644e-05H177.778C183.889 1.88644e-05 189.122 2.1778 193.478 6.53335C197.833 10.8889 200.007 16.1185 200 22.2222V177.778C200 183.889 197.822 189.122 193.467 193.478C189.111 197.833 183.881 200.007 177.778 200H22.2222Z" fill="#00E0FF"/>
</svg>
